<svg width="412.542" height="87.85" viewBox="0 0 412.542 87.85" xmlns="http://www.w3.org/2000/svg">
  <g id="svgGroup" stroke-linecap="round" fill-rule="evenodd" font-size="9pt" stroke="#20c99700" stroke-width="0.4mm" fill="#15d196" style="stroke:#20c99700;stroke-width:0.4mm;fill:#15d196">
    <path d="M 292.572 51.214 L 292.572 73.015 L 336.303 73.015 L 336.303 87.85 L 275.931 87.85 L 275.931 0.001 L 336.303 0.001 L 336.303 14.836 L 292.572 14.836 L 292.572 36.508 L 336.303 36.508 L 336.303 51.214 L 292.572 51.214 Z M 393.837 87.85 L 365.844 52.375 L 365.844 87.85 L 349.461 87.85 L 349.461 0.001 L 387.129 0.001 A 23.85 23.85 0 0 1 395.995 1.645 A 22.983 22.983 0 0 1 396.546 1.871 A 23.273 23.273 0 0 1 403.591 6.471 A 22.311 22.311 0 0 1 404.092 6.967 Q 407.253 10.192 409.124 14.578 Q 410.994 18.964 410.994 23.866 L 410.994 27.736 Q 410.994 32.638 409.124 36.959 Q 407.253 41.281 404.093 44.57 Q 400.932 47.86 396.546 49.666 A 24.387 24.387 0 0 1 387.521 51.469 A 27.824 27.824 0 0 1 387.129 51.472 L 382.743 51.472 L 412.542 87.85 L 393.837 87.85 Z M 197.37 21.544 L 197.37 28.639 Q 197.37 32.896 195.693 36.895 A 22.726 22.726 0 0 1 191.528 43.486 A 21.696 21.696 0 0 1 191.178 43.861 A 17.194 17.194 0 0 1 194.96 47.607 A 15.224 15.224 0 0 1 196.725 50.762 Q 198.402 54.826 198.402 59.212 L 198.402 64.63 A 32.807 32.807 0 0 1 197.965 70.095 A 26.041 26.041 0 0 1 196.854 74.434 Q 195.306 78.82 192.533 81.787 Q 189.759 84.754 185.954 86.302 Q 182.148 87.85 177.504 87.85 L 137.514 87.85 L 137.514 0.001 L 176.343 0.001 A 24.251 24.251 0 0 1 181.813 0.598 A 20.76 20.76 0 0 1 184.857 1.549 Q 188.727 3.097 191.501 5.935 Q 194.274 8.773 195.822 12.772 A 23.122 23.122 0 0 1 197.273 19.205 A 27.761 27.761 0 0 1 197.37 21.544 Z M 265.998 21.544 L 265.998 28.639 Q 265.998 32.896 264.321 36.895 A 22.726 22.726 0 0 1 260.156 43.486 A 21.696 21.696 0 0 1 259.806 43.861 A 17.194 17.194 0 0 1 263.588 47.607 A 15.224 15.224 0 0 1 265.353 50.762 Q 267.03 54.826 267.03 59.212 L 267.03 64.63 A 32.807 32.807 0 0 1 266.593 70.095 A 26.041 26.041 0 0 1 265.482 74.434 Q 263.934 78.82 261.161 81.787 Q 258.387 84.754 254.582 86.302 Q 250.776 87.85 246.132 87.85 L 206.142 87.85 L 206.142 0.001 L 244.971 0.001 A 24.251 24.251 0 0 1 250.441 0.598 A 20.76 20.76 0 0 1 253.485 1.549 Q 257.355 3.097 260.129 5.935 Q 262.902 8.773 264.45 12.772 A 23.122 23.122 0 0 1 265.901 19.205 A 27.761 27.761 0 0 1 265.998 21.544 Z M 55.857 0.001 L 55.857 62.308 Q 55.857 67.597 53.858 72.241 Q 51.858 76.885 48.375 80.368 Q 44.892 83.851 40.248 85.85 Q 35.604 87.85 30.444 87.85 L 24.123 87.85 A 24.391 24.391 0 0 1 18.021 87.108 A 21.302 21.302 0 0 1 14.899 86.044 Q 10.707 84.238 7.482 81.142 Q 4.257 78.046 2.322 73.853 Q 0.387 69.661 0 64.888 L 15.867 64.888 Q 16.641 68.113 18.641 70.37 A 6.528 6.528 0 0 0 22.397 72.459 A 9.702 9.702 0 0 0 24.252 72.628 L 29.67 72.628 A 10.2 10.2 0 0 0 31.927 72.387 A 8.23 8.23 0 0 0 33.798 71.725 Q 35.604 70.822 36.959 69.274 Q 38.313 67.726 39.087 65.726 A 11.653 11.653 0 0 0 39.846 62.051 A 13.541 13.541 0 0 0 39.861 61.405 L 39.861 0.001 L 55.857 0.001 Z M 90.816 0.001 L 100.878 0.001 Q 106.038 0.001 110.682 2 Q 115.326 4 118.809 7.483 Q 122.292 10.966 124.292 15.674 Q 126.291 20.383 126.291 25.672 L 126.291 62.308 Q 126.291 67.597 124.292 72.241 Q 122.292 76.885 118.809 80.368 Q 115.326 83.851 110.682 85.85 Q 106.038 87.85 100.878 87.85 L 90.816 87.85 Q 85.527 87.85 80.883 85.85 Q 76.239 83.851 72.821 80.368 Q 69.402 76.885 67.338 72.241 Q 65.274 67.597 65.274 62.308 L 65.274 25.672 Q 65.274 20.383 67.338 15.674 A 27.108 27.108 0 0 1 72.794 7.51 A 26.206 26.206 0 0 1 72.821 7.483 Q 76.239 4 80.883 2 Q 85.527 0.001 90.816 0.001 Z M 110.553 61.405 L 110.553 26.446 A 13.525 13.525 0 0 0 109.972 22.404 A 11.265 11.265 0 0 0 107.908 18.577 A 8.602 8.602 0 0 0 101.596 15.381 A 11.929 11.929 0 0 0 100.749 15.352 L 90.945 15.352 Q 86.43 15.352 83.786 18.577 A 11.604 11.604 0 0 0 81.219 24.891 A 15.124 15.124 0 0 0 81.141 26.446 L 81.141 61.405 A 13.601 13.601 0 0 0 81.761 65.586 A 11.607 11.607 0 0 0 83.786 69.338 A 8.53 8.53 0 0 0 89.98 72.588 A 11.603 11.603 0 0 0 90.945 72.628 L 100.749 72.628 A 9.962 9.962 0 0 0 104.105 72.086 A 8.451 8.451 0 0 0 107.909 69.338 A 11.951 11.951 0 0 0 110.501 62.684 A 15.371 15.371 0 0 0 110.553 61.405 Z M 183.309 61.921 L 183.309 61.018 Q 183.309 59.083 182.6 57.341 A 10.622 10.622 0 0 0 181.314 55.027 A 9.56 9.56 0 0 0 180.729 54.31 Q 179.568 53.02 177.956 52.246 A 7.697 7.697 0 0 0 175.449 51.514 A 7.206 7.206 0 0 0 174.666 51.472 L 152.736 51.472 L 152.736 71.596 L 174.666 71.596 A 7.471 7.471 0 0 0 177.752 70.916 A 8.691 8.691 0 0 0 177.956 70.822 Q 179.568 70.048 180.729 68.758 A 10.079 10.079 0 0 0 182.367 66.259 A 11.663 11.663 0 0 0 182.6 65.726 A 9.711 9.711 0 0 0 183.283 62.699 A 11.5 11.5 0 0 0 183.309 61.921 Z M 251.937 61.921 L 251.937 61.018 Q 251.937 59.083 251.228 57.341 A 10.622 10.622 0 0 0 249.942 55.027 A 9.56 9.56 0 0 0 249.357 54.31 Q 248.196 53.02 246.584 52.246 A 7.697 7.697 0 0 0 244.077 51.514 A 7.206 7.206 0 0 0 243.294 51.472 L 221.364 51.472 L 221.364 71.596 L 243.294 71.596 A 7.471 7.471 0 0 0 246.38 70.916 A 8.691 8.691 0 0 0 246.584 70.822 Q 248.196 70.048 249.357 68.758 A 10.079 10.079 0 0 0 250.995 66.259 A 11.663 11.663 0 0 0 251.228 65.726 A 9.711 9.711 0 0 0 251.911 62.699 A 11.5 11.5 0 0 0 251.937 61.921 Z M 384.549 15.352 L 365.844 15.352 L 365.844 36.121 L 384.549 36.121 A 18.005 18.005 0 0 0 387.508 35.894 Q 389.071 35.633 390.304 35.071 A 7.56 7.56 0 0 0 392.676 33.412 Q 395.256 30.703 395.256 25.801 A 13.627 13.627 0 0 0 394.864 22.446 A 9.845 9.845 0 0 0 392.676 18.254 Q 390.096 15.352 384.549 15.352 Z M 152.736 15.997 L 152.736 36.508 L 173.634 36.508 Q 175.311 36.508 176.859 35.734 Q 178.407 34.96 179.633 33.67 Q 180.858 32.38 181.503 30.638 Q 182.148 28.897 182.148 26.962 L 182.148 25.672 Q 182.148 23.608 181.503 21.931 Q 180.858 20.254 179.633 18.899 A 9.425 9.425 0 0 0 177.051 16.87 A 9.018 9.018 0 0 0 176.859 16.771 Q 175.311 15.997 173.634 15.997 L 152.736 15.997 Z M 221.364 15.997 L 221.364 36.508 L 242.262 36.508 Q 243.939 36.508 245.487 35.734 Q 247.035 34.96 248.261 33.67 Q 249.486 32.38 250.131 30.638 Q 250.776 28.897 250.776 26.962 L 250.776 25.672 Q 250.776 23.608 250.131 21.931 Q 249.486 20.254 248.261 18.899 A 9.425 9.425 0 0 0 245.679 16.87 A 9.018 9.018 0 0 0 245.487 16.771 Q 243.939 15.997 242.262 15.997 L 221.364 15.997 Z" vector-effect="non-scaling-stroke" />
  </g>
</svg>